<?xml version="1.0" encoding="utf-8"?>
<!-- Generator: Adobe Illustrator 15.0.0, SVG Export Plug-In . SVG Version: 6.00 Build 0)  -->
<!DOCTYPE svg PUBLIC "-//W3C//DTD SVG 1.1//EN" "http://www.w3.org/Graphics/SVG/1.1/DTD/svg11.dtd">
<svg version="1.1" id="Layer_1" xmlns="http://www.w3.org/2000/svg" xmlns:xlink="http://www.w3.org/1999/xlink" x="0px" y="0px"
	 width="26px" height="26px" viewBox="0 0 26 26" enable-background="new 0 0 26 26" xml:space="preserve">
<g>
	<path d="M20.422,3.069H5.579c-0.406,0-0.736,0.33-0.736,0.736v17.646c0,0.408,0.33,0.736,0.736,0.736h14.843
		c0.406,0,0.736-0.328,0.736-0.736V3.805C21.158,3.398,20.828,3.069,20.422,3.069z M19.686,20.715H6.315V4.542h13.371V20.715z"/>
	<path d="M11.082,7.737H8.388v2.693h2.693V7.737z M10.754,8.631L9.558,9.827c-0.031,0.032-0.084,0.032-0.115,0L8.714,9.095
		c-0.031-0.032-0.031-0.084,0-0.117l0.175-0.172c0.031-0.033,0.083-0.033,0.116,0l0.496,0.499l0.963-0.963
		c0.033-0.032,0.084-0.032,0.117,0l0.173,0.174C10.787,8.547,10.787,8.599,10.754,8.631z"/>
	<rect x="11.644" y="8.343" width="6.161" height="1.481"/>
	<path d="M11.082,11.249H8.388v2.692h2.693V11.249z M10.754,12.142l-1.196,1.196c-0.031,0.032-0.084,0.032-0.115,0l-0.729-0.732
		c-0.031-0.032-0.031-0.084,0-0.116l0.175-0.173c0.031-0.032,0.083-0.032,0.116,0l0.496,0.499l0.963-0.963
		c0.033-0.032,0.084-0.032,0.117,0l0.173,0.173C10.787,12.058,10.787,12.11,10.754,12.142z"/>
	<rect x="11.644" y="11.854" width="6.161" height="1.481"/>
	<rect x="8.388" y="14.838" width="2.693" height="2.693"/>
	<rect x="11.644" y="15.445" width="6.161" height="1.48"/>
</g>
</svg>
