<?xml version="1.0" encoding="utf-8"?>
<!-- Generator: Adobe Illustrator 16.0.0, SVG Export Plug-In . SVG Version: 6.00 Build 0)  -->
<!DOCTYPE svg PUBLIC "-//W3C//DTD SVG 1.1//EN" "http://www.w3.org/Graphics/SVG/1.1/DTD/svg11.dtd">
<svg version="1.1" id="Layer_6" xmlns="http://www.w3.org/2000/svg" xmlns:xlink="http://www.w3.org/1999/xlink" x="0px" y="0px"
	 width="100px" height="100px" viewBox="0 0 100 100" enable-background="new 0 0 100 100" xml:space="preserve">
<path d="M65.724,32.816c-0.203-0.05-0.413-0.084-0.631-0.084c-1.465,0-2.657,1.192-2.657,2.657s1.192,2.657,2.657,2.657
	s2.657-1.192,2.657-2.657c0-0.884-0.438-1.663-1.104-2.146l7.068-9.774c0.188,0.013,0.375,0.028,0.565,0.028c4.418,0,8-3.582,8-8
	s-3.582-8-8-8s-8,3.582-8,8c0,2.192,0.884,4.178,2.313,5.623L65.724,32.816z M66.75,35.39c0,0.914-0.744,1.657-1.657,1.657
	s-1.657-0.743-1.657-1.657s0.744-1.657,1.657-1.657c0.136,0,0.267,0.021,0.394,0.053l-0.394,1.604l0.968-1.339
	C66.477,34.353,66.75,34.838,66.75,35.39z M79.464,11.62c0.735-0.052,1.43,1.322,1.552,3.066c0.122,1.744-0.375,3.2-1.11,3.251
	c-0.735,0.052-1.429-1.321-1.551-3.065C78.233,13.128,78.729,11.672,79.464,11.62z M77.792,81.309
	c-6.571,6.432-14.544,10.115-23.68,10.986c-11.905,1.131-22.406-2.336-31.246-10.422c-7.435-6.799-11.623-15.326-12.757-25.324
	c-2.377-20.947,12.656-40.637,33.45-43.828c2.025-0.311,4.074-0.459,6.112-0.682c0.144,0,0.289,0,0.433,0
	c2.182,0.227,4.388,0.324,6.544,0.699c2.696,0.47,5.258,1.159,7.686,2.066c0.022,2.249,0.747,4.39,2.075,6.164l-1.463,5.966
	c-0.066,0.005-0.132,0.015-0.199,0.017c-1.14,0.018-1.854-0.846-1.573-1.949c0.146-0.57,0.461-1.096,0.598-1.666
	c0.103-0.424,0.235-1.082,0.019-1.295c-0.871-0.855-1.809-1.68-2.839-2.328c-1.854-1.17-3.729-0.314-5.573,0.119
	c-0.198,1.506-0.405,1.709-1.841,1.283c-1.708-0.51-3.332-1.223-4.496-2.691c-0.146-0.186-0.496-0.33-0.729-0.305
	c-1.763,0.201-3.522,0.432-5.274,0.705c-0.252,0.041-0.647,0.379-0.643,0.574c0.006,0.338,0.229,0.92,0.439,0.957
	c0.569,0.1,1.229,0.098,1.759-0.105c0.725-0.281,1.341-0.83,2.046-1.18c0.854-0.424,1.471-0.111,1.714,0.811
	c0.289,1.092-0.101,2.018-0.991,2.586c-1.213,0.771-2.543,1.359-3.799,2.066c-0.882,0.494-1.786,0.982-2.569,1.611
	c-0.629,0.506-1.067,1.291-0.567,2.098c0.464,0.75,1.289,0.574,1.973,0.332c0.702-0.248,1.367-0.615,2.021-0.98
	c0.399-0.223,0.727-0.57,1.118-0.809c0.78-0.475,1.195-0.314,1.493,0.533c0.5,1.424,1.453,1.754,2.728,0.928
	c0.551-0.357,1.047-0.809,1.622-1.119c0.848-0.457,1.757,0.029,1.839,0.92c0.12,1.305,0.424,1.559,1.718,1.414
	c0.763-0.086,1.524-0.199,2.286-0.301c0.067,0.078,0.134,0.154,0.201,0.232c-0.266,0.496-0.42,1.127-0.822,1.457
	c-0.621,0.506-1.386,0.863-2.134,1.182c-1.087,0.463-2.064,0.742-2.101,0.805c0,0,1.526,0.617,0.721,0.846
	c-1.326,0.375-3.333,2.525-0.45,1.633c0.517-0.158,1.045-0.285,1.771-0.482c-0.606,1.824-1.888,2.541-3.157,3.221
	c-3.796,2.031-3.93,6.898-1.992,9.396c0.42,0.543,0.771,1.152,1.069,1.771c0.345,0.713,0.321,1.568-0.364,1.943
	c-0.46,0.252-1.386,0.199-1.796-0.115c-0.998-0.764-1.902-1.693-2.687-2.684c-0.998-1.256-1.716-2.748-2.772-3.945
	c-3.412-3.863-7.263-3.012-10.56-0.104c-0.834,0.736-0.724,1.402,0.196,2.008c0.327,0.213,0.685,0.393,1.049,0.539
	c1.464,0.592,2.938,1.156,4.402,1.746c0.301,0.121,0.61,0.262,0.86,0.463c0.507,0.408,0.535,0.844-0.127,1.107
	c-0.484,0.191-1.003,0.307-1.515,0.418c-0.961,0.209-1.979,0.268-2.875,0.631c-0.52,0.211-1.116,0.855-1.185,1.369
	c-0.059,0.439,0.524,1.039,0.942,1.443c0.312,0.299,0.838,0.363,1.227,0.602c0.541,0.328,1.124,0.648,1.545,1.104
	c0.712,0.771,1.215,0.963,2.138,0.447c0.889-0.496,1.745-1.049,2.603-1.598c1.017-0.648,1.209-0.568,1.796,0.473
	c0.729,1.295,1.734,2.361,3.366,2.072c1.166-0.209,2.272-0.746,3.407-1.129c0.773-0.262,1.535-0.643,2.329-0.736
	c1.625-0.195,2.87,1.18,2.962,3.084c0.091,1.904-0.791,3.33-2.135,4.568c-1.318,1.213-2.027,2.6-1.421,4.484
	c0.645,2.004-0.042,3.725-1.575,5.057c-1.063,0.926-2.239,1.729-3.412,2.518c-1.374,0.922-3.661,5.979-3.157,7.76
	c0.096,0.334,0.124,0.379,0.099,0.74c-0.131,1.898-1.105,1.564-2.801,1.861c-0.958,0.168-0.864-1.861-1.083-2.789
	c-0.211-0.891-0.21-1.881-0.071-2.793c0.136-0.896,0.557-1.748,0.864-2.615c0.641-1.818,0.177-3.365-1.158-4.684
	c-0.584-0.578-1.224-1.102-1.824-1.664c-2.182-2.041-3.241-4.607-3.356-7.547c-0.058-1.48,0.669-2.154,2.136-2.293
	c0.307-0.029,0.613-0.07,0.921-0.105c-0.172-1.23-0.623-1.697-1.826-1.773c-1.143-0.07-1.808-0.715-2.248-1.656
	c-0.205-0.439-0.242-0.955-0.415-1.412c-0.413-1.09-0.703-2.273-1.344-3.215c-0.578-0.848-1.051-1.58-1.029-2.658
	c0.01-0.504-0.352-1.09-0.703-1.508c-0.795-0.943-1.676-1.816-2.547-2.693c-0.342-0.344-0.752-0.621-1.317-1.078
	c-0.039,0.863-0.04,1.422-0.094,1.973c-0.078,0.781-0.087,1.596-0.337,2.322c-0.139,0.406-0.734,0.947-1.075,0.914
	c-0.434-0.041-1.061-0.533-1.175-0.949c-0.209-0.762-0.265-1.645-0.104-2.42c0.755-3.637,1.075-7.287,0.651-10.986
	c-0.155-1.355-0.343-2.705-0.534-4.207c-7.101,8.354-10.503,23.531-3.518,36.945c7.498,14.396,23.546,21.643,39.267,17.652
	c4.115-1.045,7.779-2.771,10.968-4.964c-1.719-0.483-4.346-1.54-4.584-8.205c-0.333-9.333,1.167-11.333,2-11.333
	s1.333-0.667,4,2.333s4,1.5,4.167-0.5s2.167-4.96,3-1.896c0.573,2.108,1.857,4.58,2.873,6.353c1.922-3.884,3.045-7.979,3.298-11.91
	c-0.508-0.213-1.036-0.4-1.533-0.648c-2.239-1.123-3.55-2.885-3.647-5.438c-0.072-1.871-0.385-2.256-2.299-2.674
	c-2.005-0.438-2.645-1.34-2.082-3.314c0.376-1.316,0.995-2.566,1.558-3.824c0.588-1.313,0.981-2.607,0.679-4.098
	c-0.271-1.34-0.23-2.707,0.996-3.832c-1.142-1.299-2.197-2.557-3.322-3.748c-0.531-0.561-0.976-0.357-1.14,0.43
	c-0.04,0.193-0.033,0.396-0.078,0.588c-0.359,1.523-1.225,2.024-2.373,1.427l4.107-5.679c1.163-0.078,2.269-0.355,3.297-0.783
	c1.326,1.385,2.582,2.882,3.763,4.496c4.02,5.498,6.505,11.668,7.248,18.422C91.303,60.541,87.334,71.965,77.792,81.309z"/>
</svg>
